<svg id="ed42afca-107d-453e-a77a-d8a5b78d80d5" data-name="Capa 15" xmlns="http://www.w3.org/2000/svg" viewBox="0 0 1386.1 159.19"><defs><style>.abc00446-2e1d-42a0-909d-87ea402b52dc,.ed8791a4-f3b3-4c3d-9cae-c7d5c6b4da2b{stroke:#000;stroke-width:7px;}.abc00446-2e1d-42a0-909d-87ea402b52dc{fill:#fff;}</style></defs><title>logo-05</title><path class="ed8791a4-f3b3-4c3d-9cae-c7d5c6b4da2b" d="M131.84,495.72c.69,6.1,1,9.16,1.72,15.27q-2.75,3.5-9.47,6.25v84.08q6.89,2.94,9.47,6.07c-.68,6.11-1,9.16-1.72,15.27H91.53c-.69-6.11-1-9.16-1.72-15.27q2.23-3.14,9.47-6.07V517.24q-7.07-2.76-9.47-6.25c.68-6.11,1-9.17,1.72-15.27ZM192,622.66h-28.6l-38.25-66.23,28.77-40.84c-3.21-1.6-5.45-3.25-6.72-5,.69-6,1-8.94,1.73-14.9h39.28c.69,6,1,8.94,1.72,14.9q-2.42,2.94-9,5.89l-29.8,39.18,27.22,43.79q11.19,2.58,15.33,7.91C193,613.5,192.66,616.55,192,622.66Z" transform="translate(-78.9 -469.23)"/><path class="ed8791a4-f3b3-4c3d-9cae-c7d5c6b4da2b" d="M258.64,614.93c-7.12,5.94-19,9.4-28,9.2-10.5-.23-18.24-2.39-22.49-7.18s-6.37-12.57-6.37-23.36v-42.5a22.09,22.09,0,0,1-9.48-6.25c.69-5.67,1-8.5,1.73-14.17A74.94,74.94,0,0,1,212,528.28q8.28,0,14,.55v58.69q0,9.93,2.84,13.15T240,603.89A24.36,24.36,0,0,0,255.71,598V551.09a22,22,0,0,1-9.47-6.25c.69-5.67,1-8.5,1.72-14.17a75,75,0,0,1,17.92-2.39q8.26,0,13.95.55v71.75a37,37,0,0,1,9.48,3.13v14.53c-6.89,3.93-19.35,8.16-26,5.89C261,623.34,258.87,618.86,258.64,614.93Z" transform="translate(-78.9 -469.23)"/><path class="ed8791a4-f3b3-4c3d-9cae-c7d5c6b4da2b" d="M299.82,544.29c0-1.84.05-3.8.17-5.89,12.29-5.74,21.07-8.2,34.46-9.2,8.1-.6,20.1,1.6,26.44,7.45,5.34,4.93,8,13.22,8,24.75v39.18a37,37,0,0,1,9.48,3.13v16c-5.86,2.95-21.61,6.91-25.15,4.42-1.18-.83-2.13-7-2.93-11.59-5.8,8.88-16.94,11.72-26.88,11.59-7.6-.1-14.27-2.39-19.73-7.18s-8.18-11.28-8.18-19.5,2.55-14.68,7.67-19.41S315.9,571,326,571h18.78v-8.83q0-14.36-14.3-14.35c-3.56,0-8.2.34-8.78,1.11-1.35,1.75-.92,9.13-2.07,12H302.75Q299.81,554.41,299.82,544.29Zm31,61.07q8.79,0,13.95-5.52V584.76H332.72q-12.41,0-12.4,10.12a10.78,10.78,0,0,0,2.67,7.54Q325.66,605.36,330.83,605.36Z" transform="translate(-78.9 -469.23)"/><path class="ed8791a4-f3b3-4c3d-9cae-c7d5c6b4da2b" d="M384.23,492a74.58,74.58,0,0,1,17.92-2.39q8.27,0,14,.55v112q6.72,2.76,9.47,6.25c-.69,5.67-1,8.5-1.72,14.17H384.23c-.68-5.67-1-8.5-1.72-14.17q2.42-3.5,9.48-6.25V512.46a22.11,22.11,0,0,1-9.48-6.26C383.2,500.54,383.54,497.7,384.23,492Z" transform="translate(-78.9 -469.23)"/><path class="ed8791a4-f3b3-4c3d-9cae-c7d5c6b4da2b" d="M434.71,530.67a75,75,0,0,1,17.92-2.39q8.26,0,13.95.55v73.41q6.72,2.76,9.48,6.25c-.69,5.67-1,8.5-1.72,14.17H434.71c-.69-5.67-1-8.5-1.72-14.17q2.42-3.5,9.47-6.25V551.09a22,22,0,0,1-9.47-6.25C433.68,539.17,434,536.34,434.71,530.67ZM454.27,518q-14.4,0-14.39-13.89t14.39-13.89q14.37,0,14.38,13.89T454.27,518Z" transform="translate(-78.9 -469.23)"/><path class="ed8791a4-f3b3-4c3d-9cae-c7d5c6b4da2b" d="M634.55,553.3q0-7.35,1.21-22.81c.14-1.77.21-2.65.34-4.42l-1.72-.18q-4,15.63-6.89,24.83-11.46,36-22.91,71.94H581.67q-12.07-36-24.13-71.94a128.48,128.48,0,0,1-5.85-20.6c-.42-1.69-.62-2.54-1-4.23l-1.72.18q1.55,16.38,1.55,27.23v48.38a21.27,21.27,0,0,1,9.48,6.81c-.69,5.67-1,8.5-1.73,14.17H524.47c-.69-5.67-1-8.5-1.73-14.17a21.27,21.27,0,0,1,9.48-6.81v-85q-7.07-2.76-9.82-6.81c.69-5.66,1-8.5,1.72-14.16H563.4q12.58,37.06,25.16,74.14a96.51,96.51,0,0,1,6.2,22.26c.2,1.25.31,1.88.51,3.13h2.42q.67-11.22,6.2-25.39,12-37.08,24-74.14h38.59c.69,5.66,1,8.5,1.72,14.16q-2.76,4.05-9.82,6.81V601q6.72,2.76,9.47,6.44c-.68,6.11-1,9.16-1.72,15.27H626.8c-.69-6-1-9-1.72-15.09q2.76-3.68,9.47-6.44Z" transform="translate(-78.9 -469.23)"/><path class="ed8791a4-f3b3-4c3d-9cae-c7d5c6b4da2b" d="M719.32,624.13c-11.3.1-23.45-3.07-31.1-11.77-8.06-9.18-10.51-22.27-10.42-34.22.07-9,1.2-16.9,3.62-23.46s5.68-11.62,9.82-15.18c6.88-6.42,18.89-10.51,28.08-10.3,10.44.23,19.09,2.92,24.55,8.74,7.44,7.94,8.63,20.86,8.53,31.37-.09,8.74-4.08,13.24-12.24,13.24H702.78q.69,11.6,5.6,16.38T724,603.71a42,42,0,0,0,11.2-1.47,31.86,31.86,0,0,0,7.75-3l2.41-1.47,5.17,14.72a40,40,0,0,1-3,3.22q-2,1.93-10,5.15A50,50,0,0,1,719.32,624.13Zm10.85-58a48,48,0,0,0,.35-6.26,14.26,14.26,0,0,0-2.76-7.82Q725,548,718.2,548t-10.43,4.41q-3.62,4.41-4.82,14.9Z" transform="translate(-78.9 -469.23)"/><path class="ed8791a4-f3b3-4c3d-9cae-c7d5c6b4da2b" d="M801.67,548c-14,.23-15.89,18.21-15.85,29.06,0,9.78,1.46,16.65,4.39,20.52s7.15,5.79,12.66,5.79A92.87,92.87,0,0,0,826,600.76c2.06,5.67,3.1,8.5,5.17,14.17a49.67,49.67,0,0,1-14.82,6.53,71.07,71.07,0,0,1-18.09,2.67c-26.34.55-37.24-22.72-37.21-46,0-13.9,2.63-28.59,12.92-38.64,6.74-6.58,19.12-10.34,28.08-10.3,8.4,0,20,1.89,27.56,6.62.12,1.23.18,2.39.18,3.5a45.66,45.66,0,0,1-4.48,19.87H810.11a28.43,28.43,0,0,1-2.93-11A53.09,53.09,0,0,0,801.67,548Z" transform="translate(-78.9 -469.23)"/><path class="ed8791a4-f3b3-4c3d-9cae-c7d5c6b4da2b" d="M842.15,544.29q0-2.76.17-5.89c12.29-5.74,21.08-8.2,34.46-9.2,8.1-.6,20.1,1.6,26.44,7.45,5.34,4.93,8,13.22,8,24.75v39.18a37,37,0,0,1,9.47,3.13v16c-5.86,2.95-21.61,6.91-25.15,4.42-1.18-.83-2.13-7-2.93-11.59-5.8,8.88-16.93,11.72-26.88,11.59-7.59-.1-14.27-2.39-19.72-7.18s-8.19-11.28-8.19-19.5,2.56-14.68,7.67-19.41S858.23,571,868.34,571h18.78v-8.83q0-14.36-14.3-14.35c-3.57,0-8.2.34-8.79,1.11-1.34,1.75-.92,9.13-2.07,12H845.08Q842.16,554.41,842.15,544.29Zm31,61.07q8.79,0,14-5.52V584.76H875.06q-12.4,0-12.41,10.12a10.78,10.78,0,0,0,2.67,7.54C867.1,604.38,869.72,605.36,873.16,605.36Z" transform="translate(-78.9 -469.23)"/><path class="ed8791a4-f3b3-4c3d-9cae-c7d5c6b4da2b" d="M958.27,507.49v23.18H982.9v15.46H958.27v46.54q0,5.9,1.55,8.55t7.41,2.67a33.22,33.22,0,0,0,12.57-2.76L985,615.48a56.77,56.77,0,0,1-27.13,7.18c-9.13-.12-15.51-2.12-18.78-6.35s-4.91-10.39-4.91-18.49V546.13H926.4l-1.9-11.23c1.84-2.33,9.54-4.63,11.37-7,3.11-4,4.65-16.86,9.82-20.42Z" transform="translate(-78.9 -469.23)"/><path class="ed8791a4-f3b3-4c3d-9cae-c7d5c6b4da2b" d="M1042.68,553.3q-13.1,0-18.09,5.34v42.12q14,2.78,19.13,7.73c-.69,5.67-1,8.5-1.72,14.17H992.72c-.69-5.67-1-8.5-1.72-14.17,1.61-2.33,4.76-4.41,9.48-6.25q0-25.57,0-51.15a22.06,22.06,0,0,1-9.47-6.25c.69-5.67,1-8.5,1.72-14.17a76.06,76.06,0,0,1,17.06-2.21q7.58,0,12.57.37v11.59a31.2,31.2,0,0,1,10.17-8.18A24.79,24.79,0,0,1,1043.8,529c3.39,0,5.72.3,7,.92-.21,9.56-.31,14.35-.52,23.91A47.75,47.75,0,0,0,1042.68,553.3Z" transform="translate(-78.9 -469.23)"/><path class="ed8791a4-f3b3-4c3d-9cae-c7d5c6b4da2b" d="M1097.73,624.13c-10.9,0-23-2.94-30.24-11.59-7.89-9.44-9.82-23.09-9.82-35,0-12.44,2.51-26.19,10.94-35.87,7.77-8.92,20-12.41,31.44-12.42,10.82,0,23,2.68,30.41,11,8,9.07,9.92,22.72,9.91,34.49,0,12.66-2.68,26.47-11.12,36.43C1121.51,620.3,1109.34,624.11,1097.73,624.13Zm-15.25-48.2c0,11.27,2.1,29.22,16.54,29.43,5.54.09,9.79-2.23,12.49-6.71s3.74-12.12,4-22c.34-11-3-28.5-16.89-28.69-5.43-.08-9.59,2.11-12.23,6.34S1082.51,565.78,1082.48,575.93Zm8.1-63.66q1-8.08,5.85-19.4t9.82-16.65L1124.17,488q-2.42,7.36-9.82,16.28A71.69,71.69,0,0,1,1099.88,518Q1090.58,512.64,1090.58,512.27Z" transform="translate(-78.9 -469.23)"/><path class="ed8791a4-f3b3-4c3d-9cae-c7d5c6b4da2b" d="M1150.88,530.67a76,76,0,0,1,17-2.21q7.58,0,12.58.37V538a33.53,33.53,0,0,1,11.45-6.35,41.86,41.86,0,0,1,13.7-2.48c11.26,0,19.36,2.85,23.69,8.46,6.07,7.87,7,19.47,6.81,29.25v35.33q6.71,2.76,9.47,6.25c-.69,5.67-1,8.5-1.72,14.17h-39.63c-.69-5.67-1-8.5-1.72-14.17,1.61-2.33,4.76-4.41,9.48-6.25V565.81q0-9.93-3-13.34t-10.77-3.4q-7.76,0-15.5,5.89v47.28q6.72,2.76,9.47,6.25c-.69,5.67-1,8.5-1.72,14.17h-39.62c-.69-5.67-1-8.5-1.73-14.17q2.41-3.5,9.48-6.25V551.09a22.09,22.09,0,0,1-9.48-6.25C1149.84,539.17,1150.19,536.34,1150.88,530.67Z" transform="translate(-78.9 -469.23)"/><path class="ed8791a4-f3b3-4c3d-9cae-c7d5c6b4da2b" d="M1253.72,530.67a75.08,75.08,0,0,1,17.92-2.39q8.28,0,14,.55v73.41q6.72,2.76,9.47,6.25c-.69,5.67-1,8.5-1.72,14.17h-39.63c-.68-5.67-1-8.5-1.72-14.17q2.41-3.5,9.48-6.25V551.09a22.09,22.09,0,0,1-9.48-6.25C1252.69,539.17,1253,536.34,1253.72,530.67ZM1273.28,518q-14.38,0-14.39-13.89t14.39-13.89q14.38,0,14.38,13.89T1273.28,518Z" transform="translate(-78.9 -469.23)"/><path class="ed8791a4-f3b3-4c3d-9cae-c7d5c6b4da2b" d="M1342.45,548c-14,.23-15.89,18.21-15.85,29.06,0,9.78,1.46,16.65,4.39,20.52s7.15,5.79,12.66,5.79a92.82,92.82,0,0,0,23.09-2.58l5.17,14.17a49.67,49.67,0,0,1-14.82,6.53,71,71,0,0,1-18.09,2.67c-26.34.55-37.24-22.72-37.21-46,0-13.9,2.63-28.59,12.92-38.64,6.74-6.58,19.12-10.34,28.08-10.3,8.41,0,20,1.89,27.57,6.62.11,1.23.17,2.39.17,3.5a45.52,45.52,0,0,1-4.48,19.87h-15.16a28.61,28.61,0,0,1-2.93-11A53,53,0,0,0,1342.45,548Z" transform="translate(-78.9 -469.23)"/><path class="ed8791a4-f3b3-4c3d-9cae-c7d5c6b4da2b" d="M1382.93,544.29q0-2.76.18-5.89c12.29-5.74,21.07-8.2,34.45-9.2,8.1-.6,20.11,1.6,26.45,7.45,5.34,4.93,8,13.22,8,24.75v39.18a37,37,0,0,1,9.48,3.13v16c-5.86,2.95-21.61,6.91-25.16,4.42-1.18-.83-2.12-7-2.93-11.59-5.79,8.88-16.93,11.72-26.87,11.59-7.6-.1-14.28-2.39-19.73-7.18s-8.18-11.28-8.18-19.5,2.55-14.68,7.66-19.41S1399,571,1409.12,571h18.78v-8.83q0-14.36-14.3-14.35c-3.56,0-8.2.34-8.79,1.11-1.34,1.75-.92,9.13-2.06,12h-16.89Q1382.94,554.41,1382.93,544.29Zm31,61.07q8.77,0,14-5.52V584.76h-12.06q-12.4,0-12.4,10.12a10.78,10.78,0,0,0,2.67,7.54Q1408.78,605.36,1414,605.36Z" transform="translate(-78.9 -469.23)"/><path class="abc00446-2e1d-42a0-909d-87ea402b52dc" d="M124.57,493.27c.68,6.11,1,9.16,1.72,15.27q-2.76,3.49-9.48,6.26v84.07c4.59,2,7.76,4,9.48,6.07-.69,6.11-1,9.17-1.72,15.27H84.25c-.69-6.1-1-9.16-1.72-15.27q2.23-3.12,9.47-6.07V514.8q-7.06-2.76-9.47-6.26c.69-6.11,1-9.16,1.72-15.27Zm60.12,126.94h-28.6Q137,587.11,117.85,554l28.77-40.84c-3.22-1.59-5.46-3.25-6.72-5,.69-6,1-8.95,1.72-14.91H180.9c.69,6,1,8.94,1.72,14.91q-2.42,2.94-9,5.88l-29.81,39.19L171.08,597q11.21,2.58,15.33,7.91C185.73,611.05,185.38,614.11,184.69,620.21Z" transform="translate(-78.9 -469.23)"/><path class="abc00446-2e1d-42a0-909d-87ea402b52dc" d="M251.36,612.49c-7.12,5.94-19,9.4-28,9.2-10.5-.24-18.24-2.4-22.48-7.18s-6.38-12.57-6.38-23.36v-42.5a22,22,0,0,1-9.47-6.26c.69-5.66,1-8.5,1.72-14.16a75,75,0,0,1,17.92-2.39q8.26,0,13.95.55v58.68q0,9.95,2.84,13.16t11.29,3.22a24.34,24.34,0,0,0,15.68-5.89V548.65a22,22,0,0,1-9.48-6.26c.69-5.66,1-8.5,1.72-14.16a75,75,0,0,1,17.92-2.39q8.26,0,14,.55v71.75a37,37,0,0,1,9.47,3.13V615.8c-6.89,3.93-19.35,8.15-26,5.89C253.69,620.9,251.59,616.41,251.36,612.49Z" transform="translate(-78.9 -469.23)"/><path class="abc00446-2e1d-42a0-909d-87ea402b52dc" d="M292.54,541.84q0-2.76.17-5.89c12.29-5.73,21.08-8.2,34.46-9.19,8.1-.61,20.1,1.59,26.44,7.45,5.34,4.92,8,13.21,8,24.74q0,19.59,0,39.19a37,37,0,0,1,9.47,3.13v16c-5.86,2.94-21.61,6.91-25.15,4.42-1.18-.83-2.13-7.06-2.93-11.59-5.8,8.87-16.93,11.71-26.88,11.59-7.59-.1-14.27-2.4-19.72-7.18s-8.19-11.28-8.19-19.5,2.56-14.69,7.67-19.41,12.72-7.08,22.83-7.08H337.5v-8.83q0-14.36-14.29-14.35c-3.57,0-8.2.33-8.79,1.1-1.34,1.76-.92,9.14-2.07,12H295.47Q292.53,552,292.54,541.84Zm31,61.08q8.79,0,14-5.52c0-6,0-9,0-15.08H325.45q-12.4,0-12.41,10.11a10.8,10.8,0,0,0,2.67,7.55Q318.38,602.92,323.55,602.92Z" transform="translate(-78.9 -469.23)"/><path class="abc00446-2e1d-42a0-909d-87ea402b52dc" d="M377,489.59a74.94,74.94,0,0,1,17.91-2.39q8.28,0,14,.55v112q6.72,2.76,9.47,6.26c-.68,5.66-1,8.5-1.72,14.16H377c-.69-5.66-1-8.5-1.73-14.16q2.41-3.49,9.48-6.26V510a22.09,22.09,0,0,1-9.48-6.25C375.92,498.09,376.27,495.26,377,489.59Z" transform="translate(-78.9 -469.23)"/><path class="abc00446-2e1d-42a0-909d-87ea402b52dc" d="M427.43,528.23a75,75,0,0,1,17.92-2.39q8.26,0,14,.55v73.4q6.72,2.76,9.47,6.26c-.69,5.66-1,8.5-1.72,14.16H427.43l-1.72-14.16q2.42-3.49,9.48-6.26V548.65a22.11,22.11,0,0,1-9.48-6.26C426.4,536.73,426.74,533.89,427.43,528.23ZM447,515.53q-14.39,0-14.39-13.89T447,487.75q14.38,0,14.38,13.89T447,515.53Z" transform="translate(-78.9 -469.23)"/><path class="abc00446-2e1d-42a0-909d-87ea402b52dc" d="M627.28,550.86q0-7.36,1.2-22.82l.35-4.41-1.72-.19q-4,15.64-6.9,24.84-11.44,36-22.91,71.93H574.39l-24.12-71.93a128,128,0,0,1-5.86-20.6c-.41-1.7-.62-2.54-1-4.24l-1.73.19q1.56,16.38,1.55,27.23v48.38a21.27,21.27,0,0,1,9.48,6.81c-.69,5.66-1,8.5-1.72,14.16H517.19c-.69-5.66-1-8.5-1.72-14.16a21.18,21.18,0,0,1,9.47-6.81v-85q-7.07-2.76-9.82-6.81c.69-5.67,1-8.5,1.72-14.17h39.29q12.57,37.08,25.15,74.14a96.64,96.64,0,0,1,6.2,22.26c.21,1.26.31,1.88.52,3.13h2.41q.69-11.22,6.2-25.39,12-37.06,23.95-74.14h38.59c.69,5.67,1,8.5,1.72,14.17q-2.76,4.05-9.82,6.81v84.26q6.72,2.76,9.48,6.43c-.69,6.11-1,9.17-1.72,15.27H619.53c-.69-6-1-9.05-1.73-15.08q2.76-3.68,9.48-6.44Z" transform="translate(-78.9 -469.23)"/><path class="abc00446-2e1d-42a0-909d-87ea402b52dc" d="M712,621.69c-11.29.1-23.45-3.07-31.1-11.78-8.06-9.17-10.51-22.26-10.42-34.22.07-9,1.21-16.89,3.62-23.45s5.68-11.62,9.82-15.18c6.88-6.42,18.89-10.51,28.08-10.3,10.44.23,19.1,2.92,24.55,8.73,7.45,8,8.63,20.86,8.53,31.37-.09,8.75-4.08,13.25-12.23,13.25H695.5q.69,11.6,5.6,16.37t15.59,4.79a41.65,41.65,0,0,0,11.2-1.48,32.35,32.35,0,0,0,7.75-2.94l2.41-1.47c2.07,5.88,3.11,8.83,5.17,14.72a38.28,38.28,0,0,1-3,3.22q-2,1.92-10,5.15A50,50,0,0,1,712,621.69Zm10.85-58a47.88,47.88,0,0,0,.35-6.25,14.26,14.26,0,0,0-2.76-7.82q-2.76-4.14-9.56-4.14t-10.42,4.42q-3.62,4.41-4.83,14.9Z" transform="translate(-78.9 -469.23)"/><path class="abc00446-2e1d-42a0-909d-87ea402b52dc" d="M794.39,545.52c-14,.24-15.89,18.21-15.85,29.07,0,9.78,1.46,16.65,4.39,20.51s7.15,5.8,12.66,5.8a92.82,92.82,0,0,0,23.09-2.58l5.17,14.17A50.18,50.18,0,0,1,809,619a71.45,71.45,0,0,1-18.09,2.67c-26.34.55-37.24-22.73-37.21-46,0-13.89,2.63-28.58,12.92-38.63,6.74-6.58,19.12-10.34,28.08-10.3,8.41,0,20,1.89,27.57,6.62.11,1.23.17,2.39.17,3.49A45.45,45.45,0,0,1,818,556.74H802.83a28.51,28.51,0,0,1-2.93-11A49.93,49.93,0,0,0,794.39,545.52Z" transform="translate(-78.9 -469.23)"/><path class="abc00446-2e1d-42a0-909d-87ea402b52dc" d="M834.87,541.84q0-2.76.18-5.89c12.29-5.73,21.07-8.2,34.45-9.19,8.1-.61,20.1,1.59,26.45,7.45,5.34,4.92,8,13.21,8,24.74v39.19a36.9,36.9,0,0,1,9.47,3.13v16c-5.85,2.94-21.6,6.91-25.15,4.42-1.18-.83-2.13-7.06-2.93-11.59-5.79,8.87-16.93,11.71-26.87,11.59-7.6-.1-14.28-2.4-19.73-7.18s-8.18-11.28-8.18-19.5,2.55-14.69,7.66-19.41,12.72-7.08,22.83-7.08h18.78v-8.83q0-14.36-14.3-14.35c-3.56,0-8.2.33-8.79,1.1-1.34,1.76-.92,9.14-2.06,12H837.8Q834.88,552,834.87,541.84Zm31,61.08q8.79,0,14-5.52V582.32H867.78q-12.4,0-12.41,10.11a10.81,10.81,0,0,0,2.68,7.55C859.82,601.94,862.44,602.92,865.88,602.92Z" transform="translate(-78.9 -469.23)"/><path class="abc00446-2e1d-42a0-909d-87ea402b52dc" d="M951,505.05v23.18h24.64v15.45H951v46.55c0,3.92.52,6.78,1.55,8.55s3.5,2.67,7.41,2.67a33.26,33.26,0,0,0,12.58-2.76c2.06,5.74,3.1,8.61,5.16,14.35a56.87,56.87,0,0,1-27.13,7.17c-9.13-.11-15.51-2.11-18.78-6.34s-4.91-10.4-4.91-18.49v-51.7h-7.75l-1.9-11.22c1.84-2.33,9.54-4.64,11.37-7,3.11-4,4.66-16.86,9.82-20.42Z" transform="translate(-78.9 -469.23)"/><path class="abc00446-2e1d-42a0-909d-87ea402b52dc" d="M1035.41,550.86q-13.1,0-18.09,5.33v42.13q13.95,2.76,19.12,7.73c-.69,5.66-1,8.5-1.72,14.16H985.45c-.69-5.66-1-8.5-1.73-14.16q2.41-3.49,9.48-6.26V548.65a22.11,22.11,0,0,1-9.48-6.26c.69-5.66,1-8.5,1.73-14.16a76,76,0,0,1,17-2.21q7.57,0,12.58.37V538a31.21,31.21,0,0,1,10.16-8.19,25,25,0,0,1,11.29-3.22c3.38,0,5.71.31,7,.92-.2,9.57-.31,14.35-.51,23.92A47.93,47.93,0,0,0,1035.41,550.86Z" transform="translate(-78.9 -469.23)"/><path class="abc00446-2e1d-42a0-909d-87ea402b52dc" d="M1090.45,621.69c-10.9,0-23-3-30.24-11.59-7.89-9.44-9.82-23.09-9.82-35.05,0-12.44,2.51-26.2,10.94-35.88,7.77-8.91,20-12.4,31.45-12.41,10.82,0,23,2.68,30.4,11,8,9.08,9.92,22.73,9.91,34.5,0,12.66-2.68,26.46-11.11,36.43C1114.24,617.86,1102.06,621.67,1090.45,621.69Zm-15.25-48.21c0,11.28,2.1,29.23,16.54,29.44,5.54.08,9.79-2.24,12.49-6.71s3.75-12.13,4-22c.34-11-3-28.5-16.88-28.7-5.44-.08-9.59,2.12-12.24,6.35S1075.24,563.34,1075.2,573.48Zm8.1-63.65q1-8.08,5.86-19.41t9.82-16.65l17.91,11.78q-2.42,7.35-9.82,16.28a71.33,71.33,0,0,1-14.47,13.7Q1083.3,510.21,1083.3,509.83Z" transform="translate(-78.9 -469.23)"/><path class="abc00446-2e1d-42a0-909d-87ea402b52dc" d="M1143.6,528.23a76,76,0,0,1,17.05-2.21q7.59,0,12.58.37v9.2a33.32,33.32,0,0,1,11.46-6.35,41.54,41.54,0,0,1,13.69-2.48c11.26,0,19.36,2.84,23.69,8.46,6.07,7.87,7,19.46,6.81,29.25v35.32q6.72,2.76,9.47,6.26c-.69,5.66-1,8.5-1.72,14.16H1197c-.69-5.66-1-8.5-1.73-14.16q2.42-3.49,9.48-6.26V563.37q0-9.95-3-13.34t-10.76-3.4q-7.76,0-15.51,5.88v47.28q6.72,2.76,9.48,6.26c-.69,5.66-1,8.5-1.73,14.16H1143.6c-.69-5.66-1-8.5-1.72-14.16q2.4-3.49,9.47-6.26V548.65a22,22,0,0,1-9.47-6.26C1142.56,536.73,1142.91,533.89,1143.6,528.23Z" transform="translate(-78.9 -469.23)"/><path class="abc00446-2e1d-42a0-909d-87ea402b52dc" d="M1246.45,528.23a74.94,74.94,0,0,1,17.91-2.39q8.28,0,14,.55v73.4q6.72,2.76,9.47,6.26c-.68,5.66-1,8.5-1.72,14.16h-39.62c-.69-5.66-1-8.5-1.72-14.16q2.4-3.49,9.47-6.26V548.65a22,22,0,0,1-9.47-6.26C1245.41,536.73,1245.76,533.89,1246.45,528.23Zm19.55-12.7q-14.38,0-14.38-13.89T1266,487.75q14.38,0,14.39,13.89T1266,515.53Z" transform="translate(-78.9 -469.23)"/><path class="abc00446-2e1d-42a0-909d-87ea402b52dc" d="M1335.17,545.52c-14,.24-15.88,18.21-15.85,29.07,0,9.78,1.47,16.65,4.39,20.51s7.15,5.8,12.67,5.8a92.79,92.79,0,0,0,23.08-2.58l5.17,14.17a50.06,50.06,0,0,1-14.82,6.53,71.44,71.44,0,0,1-18.08,2.67c-26.35.55-37.25-22.73-37.22-46,0-13.89,2.63-28.58,12.92-38.63,6.74-6.58,19.13-10.34,28.09-10.3,8.4,0,20,1.89,27.56,6.62.11,1.23.17,2.39.17,3.49a45.45,45.45,0,0,1-4.48,19.87h-15.16a28.51,28.51,0,0,1-2.93-11A49.83,49.83,0,0,0,1335.17,545.52Z" transform="translate(-78.9 -469.23)"/><path class="abc00446-2e1d-42a0-909d-87ea402b52dc" d="M1375.66,541.84c0-1.84,0-3.8.17-5.89,12.29-5.73,21.07-8.2,34.46-9.19,8.1-.61,20.1,1.59,26.44,7.45,5.34,4.92,8,13.21,8,24.74v39.19a37,37,0,0,1,9.48,3.13v16c-5.86,2.94-21.61,6.91-25.16,4.42-1.17-.83-2.12-7.06-2.92-11.59-5.8,8.87-16.94,11.71-26.88,11.59-7.6-.1-14.27-2.4-19.73-7.18s-8.18-11.28-8.18-19.5,2.55-14.69,7.67-19.41,12.72-7.08,22.82-7.08h18.78v-8.83q0-14.36-14.3-14.35c-3.56,0-8.19.33-8.78,1.1-1.35,1.76-.92,9.14-2.07,12h-16.88Q1375.65,552,1375.66,541.84Zm31,61.08q8.79,0,13.95-5.52V582.32h-12.06q-12.4,0-12.4,10.11a10.8,10.8,0,0,0,2.67,7.55Q1401.5,602.92,1406.67,602.92Z" transform="translate(-78.9 -469.23)"/></svg>